<?xml version="1.0" encoding="utf-8"?>
<!-- Generator: Adobe Illustrator 21.0.2, SVG Export Plug-In . SVG Version: 6.00 Build 0)  -->
<svg version="1.1" id="Layer_1" xmlns="http://www.w3.org/2000/svg" xmlns:xlink="http://www.w3.org/1999/xlink" x="0px" y="0px"
	 viewBox="0 0 1280 1024" style="enable-background:new 0 0 1280 1024;" xml:space="preserve">
<style type="text/css">
	.st0{fill:#BCAAA4;stroke:#231F20;stroke-width:0.493;stroke-miterlimit:10;}
	.st1{fill:#2C2745;stroke:#231F20;stroke-width:0.493;stroke-miterlimit:10;}
	.st2{fill:#3A3259;stroke:#231F20;stroke-width:0.493;stroke-miterlimit:10;}
	.st3{opacity:0.2;fill:none;stroke:#231F20;stroke-width:4.9295;stroke-miterlimit:10;}
	.st4{fill:#FFFFFF;stroke:#231F20;stroke-width:0.493;stroke-miterlimit:10;}
	.st5{fill:none;stroke:#231F20;stroke-width:0.493;stroke-miterlimit:10;}
	.st6{fill:#706A86;stroke:#231F20;stroke-width:0.493;stroke-miterlimit:10;}
	.st7{fill:#C93E23;stroke:#231F20;stroke-width:0.493;stroke-miterlimit:10;}
	.st8{opacity:0.2;fill:#231F20;stroke:#231F20;stroke-width:4.9295;stroke-miterlimit:10;}
</style>
<path class="st0" d="M819,300.7L205.2,657.2l323.1,188.5c8.7,5.1,19.5,5.1,28.3,0.1l582.3-334.5c8.4-4.8,8.5-16.9,0.1-21.8
	L819,300.7z"/>
<path class="st1" d="M203.6,577.8l1.6,79.4l320.7,187.3c10.2,6,22.9,6.1,33.2,0.2c90.2-51.6,504.8-288.8,575.3-329
	c6.4-3.7,10.3-10.5,10.1-17.9c-0.7-33.5-1.1-78.6-1.1-78.6L817.3,221.3L203.6,577.8z"/>
<path class="st2" d="M817.3,221.3L203.6,577.8l323.1,188.5c8.7,5.1,19.5,5.1,28.3,0.1l582.3-334.5c8.4-4.8,8.5-16.9,0.1-21.8
	L817.3,221.3z"/>
<polyline class="st3" points="902.7,270.8 889.7,278.4 854.9,259.2 272.5,599.4 295.9,614.6 282.5,623.8 283.7,703 "/>
<path class="st4" d="M762.7,391.2l-219,128.1c-6.8,4-6.8,13.8,0.1,17.8l122.6,70.8c3.2,1.9,7.2,1.8,10.4,0L894,479.7
	c6.8-4,6.7-13.8,0-17.7L773,391.2C769.8,389.3,765.9,389.3,762.7,391.2z"/>
<line class="st5" x1="591.3" y1="535.7" x2="781.4" y2="423.4"/>
<line class="st5" x1="616" y1="551" x2="806" y2="438.7"/>
<line class="st5" x1="672.2" y1="581" x2="862.2" y2="468.7"/>
<line class="st5" x1="643.6" y1="565.8" x2="833.6" y2="453.5"/>
<path class="st6" d="M502.2,548.3l136.1,81.1c6.5,3.9,6.4,13.3-0.2,17l-82.5,46.7c-15.7,8.9-35,8.5-50.3-1l-93-57.8
	c-15.7-9.8-15.5-32.7,0.5-42.1l74.3-44C491.8,545.5,497.6,545.5,502.2,548.3z"/>
<path class="st6" d="M923.4,315.7l96.7,57.6c16.2,9.7,16,33.3-0.5,42.6l-78.2,44.3c-4.7,2.7-10.5,2.5-15.1-0.3l-131.1-81.4
	c-6.3-3.9-6.2-13.1,0.2-16.9l77.7-46C888.5,306.5,907.8,306.5,923.4,315.7z"/>
<path class="st7" d="M543.5,519.4l215.6-126.1c0,0,7.1-6.1,13.9-2.1c6.8,4,11.6,6.8,11.6,6.8L548.4,539.7l-5.1-3.2
	C536.9,532.6,537,523.2,543.5,519.4z"/>
<polygon class="st8" points="577.9,389.8 579.5,399.6 589.4,393.2 "/>
</svg>
