<?xml version="1.0" encoding="UTF-8" standalone="no"?>
<!-- Created with Inkscape (http://www.inkscape.org/) -->

<svg
   xmlns:dc="http://purl.org/dc/elements/1.1/"
   xmlns:cc="http://creativecommons.org/ns#"
   xmlns:rdf="http://www.w3.org/1999/02/22-rdf-syntax-ns#"
   xmlns:svg="http://www.w3.org/2000/svg"
   xmlns="http://www.w3.org/2000/svg"
   xmlns:sodipodi="http://sodipodi.sourceforge.net/DTD/sodipodi-0.dtd"
   xmlns:inkscape="http://www.inkscape.org/namespaces/inkscape"
   width="27.252083mm"
   height="33.602085mm"
   viewBox="0 0 27.252083 33.602085"
   version="1.1"
   id="svg9550"
   inkscape:version="0.92.2 (5c3e80d, 2017-08-06)"
   sodipodi:docname="Medal.svg">
  <defs
     id="defs9544" />
  <sodipodi:namedview
     id="base"
     pagecolor="#ffffff"
     bordercolor="#666666"
     borderopacity="1.0"
     inkscape:pageopacity="0.0"
     inkscape:pageshadow="2"
     inkscape:zoom="5.6568543"
     inkscape:cx="73.304889"
     inkscape:cy="76.757337"
     inkscape:document-units="mm"
     inkscape:current-layer="layer1"
     showgrid="false"
     fit-margin-top="0"
     fit-margin-left="0"
     fit-margin-right="0"
     fit-margin-bottom="0"
     showguides="true"
     inkscape:guide-bbox="true"
     inkscape:window-width="1600"
     inkscape:window-height="831"
     inkscape:window-x="0"
     inkscape:window-y="27"
     inkscape:window-maximized="1" />
  <metadata
     id="metadata9547">
    <rdf:RDF>
      <cc:Work
         rdf:about="">
        <dc:format>image/svg+xml</dc:format>
        <dc:type
           rdf:resource="http://purl.org/dc/dcmitype/StillImage" />
        <dc:title></dc:title>
      </cc:Work>
    </rdf:RDF>
  </metadata>
  <g
     inkscape:label="Layer 1"
     inkscape:groupmode="layer"
     id="layer1"
     transform="translate(-60.457306,-38.294197)">
    <flowRoot
       xml:space="preserve"
       id="flowRoot9597"
       style="font-style:normal;font-weight:normal;font-size:40px;line-height:1.25;font-family:sans-serif;letter-spacing:0px;word-spacing:0px;fill:#000000;fill-opacity:1;stroke:none"
       transform="matrix(0.26458333,0,0,0.26458333,60.457306,38.294197)"><flowRegion
         id="flowRegion9599"><rect
           id="rect9601"
           width="57.629204"
           height="49.143921"
           x="23.688078"
           y="29.06572" /></flowRegion><flowPara
         id="flowPara9603"></flowPara></flowRoot>    <path
       style="fill:#7beec0;fill-opacity:1;stroke:none;stroke-width:0.26458332px;stroke-linecap:butt;stroke-linejoin:miter;stroke-opacity:1"
       d="m 67.005409,71.475333 7.10937,-4.022407 7.109369,4.069178 -1.028988,-10.196332 -12.160763,0.04677 z"
       id="path10159"
       inkscape:connector-curvature="0"
       sodipodi:nodetypes="cccccc" />
    <path
       style="fill:#00cc7b;fill-opacity:1;stroke:none;stroke-width:0.26458332px;stroke-linecap:butt;stroke-linejoin:miter;stroke-opacity:1"
       d="m 63.12332,44.674881 1.800728,0.02339 -0.07016,-1.917659 1.777342,0.116931 0.280633,-1.847501 1.707184,0.467722 0.374177,-1.660412 1.660412,0.795127 1.028988,-1.590254 1.239462,1.07576 1.192691,-1.379779 1.216076,1.449937 1.379779,-1.169304 0.958829,1.637026 1.449937,-0.865285 0.514494,1.660412 1.824115,-0.444336 0.163702,1.753956 1.824115,0.02339 -0.233861,1.753956 1.800729,0.09354 -0.514494,1.683798 1.73057,0.608038 -0.654811,1.590254 1.42655,0.865284 -1.099144,1.49671 1.30962,1.099146 -1.239462,1.286234 1.052373,1.262849 -1.449937,1.07576 0.654811,1.496709 -1.496709,0.444336 0.350791,1.8475 -1.777343,0.163703 0.187089,1.707184 -1.777342,-0.02339 -0.210475,1.707184 -1.590254,-0.491107 -0.748354,1.707184 -1.520096,-0.865285 -0.841899,1.637026 -1.449937,-1.099146 -1.169304,1.496709 -1.19269,-1.426551 -1.356393,1.169304 -0.935444,-1.73057 -1.637025,0.935443 -0.397564,-1.847501 -1.824114,0.53788 -0.09355,-1.683798 h -1.707184 l -0.09354,-1.777342 -1.707184,-0.04677 0.397563,-1.730571 -1.543481,-0.397563 0.65481,-1.73057 -1.426551,-1.028988 0.982216,-1.239462 -1.379779,-1.286235 1.449937,-1.239462 -1.169304,-1.333007 1.637025,-0.935443 -0.888671,-1.61364 1.61364,-0.467722 z"
       id="path10157"
       inkscape:connector-curvature="0" />
    <g
       aria-label="#1"
       transform="scale(0.86151549,1.1607452)"
       style="font-style:normal;font-weight:normal;font-size:10.72410583px;line-height:1.25;font-family:sans-serif;letter-spacing:0px;word-spacing:0px;fill:#fffffd;fill-opacity:1;stroke:none;stroke-width:0.26810268"
       id="text9607">
      <path
         d="m 83.969777,43.851695 h -1.625372 l -0.46918,1.865547 h 1.636544 z m -0.837821,-3.178134 -0.580889,2.317971 h 1.630958 L 84.7685,40.673561 h 0.893675 l -0.575303,2.317971 h 1.742667 v 0.860163 h -1.960501 l -0.458008,1.865547 h 1.77618 v 0.854577 h -1.994014 l -0.580889,2.312386 h -0.893675 l 0.575303,-2.312386 h -1.636543 l -0.575304,2.312386 h -0.899261 l 0.580889,-2.312386 h -1.759423 v -0.854577 h 1.966086 l 0.469179,-1.865547 h -1.798522 v -0.860163 h 2.016356 l 0.569718,-2.317971 z"
         style="font-size:11.43904686px;fill:#fffffd;fill-opacity:1;stroke-width:0.26810268"
         id="path10152"
         inkscape:connector-curvature="0" />
      <path
         d="m 89.125168,47.934675 h 1.843206 v -6.361853 l -2.005185,0.402154 v -1.027727 l 1.994014,-0.402154 h 1.128265 v 7.38958 h 1.843206 v 0.94953 h -4.803506 z"
         style="font-size:11.43904686px;fill:#fffffd;fill-opacity:1;stroke-width:0.26810268"
         id="path10154"
         inkscape:connector-curvature="0" />
    </g>
  </g>
</svg>
