<?xml version="1.0" encoding="utf-8"?>
<!-- Generator: Adobe Illustrator 21.0.2, SVG Export Plug-In . SVG Version: 6.00 Build 0)  -->
<svg version="1.1" id="Layer_1" xmlns="http://www.w3.org/2000/svg" xmlns:xlink="http://www.w3.org/1999/xlink" x="0px" y="0px"
	 viewBox="0 0 1280 1024" style="enable-background:new 0 0 1280 1024;" xml:space="preserve">
<style type="text/css">
	.st0{fill:#E0E0E0;}
	.st1{fill:#D32F2F;}
	.st2{fill:url(#SVGID_1_);}
	.st3{fill:url(#SVGID_2_);}
	.st4{fill:url(#SVGID_3_);}
	.st5{fill:#FA9952;}
	.st6{fill:#FF563E;}
	.st7{fill:url(#SVGID_4_);}
	.st8{fill:url(#SVGID_5_);}
	.st9{fill:#B0BEC5;}
	.st10{fill:url(#SVGID_6_);}
	.st11{fill:#ECEFF1;}
	.st12{fill:#BDBDBD;}
	.st13{fill:url(#SVGID_7_);}
	.st14{fill:#2A2A2A;}
</style>
<path class="st0" d="M803.1,113.5C801.9,74.1,731.5,57,691.5,57c-40,0-89.8,40.8-89.8,40.8l23.9,38.8c17.2-14.9,43.5-31.4,61.3-30.8
	c17.7,0.7,31,14.5,29.2,44l39.5,6.9l51.1-6.9C806.5,149.8,804.3,152.8,803.1,113.5z"/>
<path class="st0" d="M602.1,97.7l23.4,38.5c17.2-14.9,43.8-30.2,61.3-30.8c25.8-0.9,32.2,18.7,29.2,44.4l39.5,6.9l51.3-10.9"/>
<path class="st1" d="M359.7,877"/>
<linearGradient id="SVGID_1_" gradientUnits="userSpaceOnUse" x1="-4882.5654" y1="228.3819" x2="-4893.5566" y2="247.4193" gradientTransform="matrix(1 0 0 1 5761.625 0)">
	<stop  offset="0" style="stop-color:#FBB040"/>
	<stop  offset="0.5891" style="stop-color:#F99451"/>
</linearGradient>
<path class="st2" d="M780.2,187.5l136.5,81.1l43.1,31.8c0,0-2.4-24-16.1-32.2c-20.3-12.2-135.7-80.7-135.7-80.7
	S796.2,178.4,780.2,187.5z"/>
<linearGradient id="SVGID_2_" gradientUnits="userSpaceOnUse" x1="-5319.9995" y1="932.2886" x2="-5288.1436" y2="877.1132" gradientTransform="matrix(1 0 0 1 5761.625 0)">
	<stop  offset="0" style="stop-color:#F99451"/>
	<stop  offset="1" style="stop-color:#EF6346"/>
</linearGradient>
<path class="st3" d="M379,856.1c-5.6,0.5-13.4-6.4-16-2.1c0,0,0.1,20,2.3,25.2c1.7,3.9,4.4,7.8,8.6,11.1
	c14.3,11.1,131.5,78.9,143.2,85.6c0.8,0.5,4.4,0.1,5.2,0.4c3.9,1.4,9.5,0.9,20.1-4.9C555.3,964.2,497.8,844.7,379,856.1z"/>
<linearGradient id="SVGID_3_" gradientUnits="userSpaceOnUse" x1="-5296.1533" y1="949.5944" x2="-5370.1016" y2="530.2134" gradientTransform="matrix(1 0 0 1 5761.625 0)">
	<stop  offset="0" style="stop-color:#F99451"/>
	<stop  offset="0.5594" style="stop-color:#EF6346"/>
</linearGradient>
<polygon class="st4" points="356.7,536.4 493.2,617.5 499.7,943.6 363.1,858.4 "/>
<polyline class="st5" points="780.2,187.5 916.8,268.6 581.5,459 444.9,377.8 "/>
<g>
	<path class="st6" d="M906.2,777.1L543.7,975.5c-20.2,11.1-44.6-3.9-45.1-27.7L492,617.5c-1.3-65.9,32.8-127,88.5-158.5l336.2-190.3
		c19.5-11,43.2,3.6,43.2,26.7v389.3C959.9,723.4,939.2,759.1,906.2,777.1z"/>
</g>
<linearGradient id="SVGID_4_" gradientUnits="userSpaceOnUse" x1="-5255.25" y1="413.8362" x2="-5349.0415" y2="569.931" gradientTransform="matrix(1 0 0 1 5761.625 0)">
	<stop  offset="0" style="stop-color:#F99451"/>
	<stop  offset="1" style="stop-color:#EF6346"/>
</linearGradient>
<path class="st7" d="M444.9,377.8L581.5,459c0,0-90.4,46.1-88.2,158.5l-136.5-81.1C356.7,536.4,347.1,436.3,444.9,377.8z"/>
<radialGradient id="SVGID_5_" cx="-267.9976" cy="628.3363" r="90.2189" gradientTransform="matrix(-1 0 0 3 476.331 -1256.6726)" gradientUnits="userSpaceOnUse">
	<stop  offset="0" style="stop-color:#424242"/>
	<stop  offset="1" style="stop-color:#263238"/>
</radialGradient>
<path class="st8" d="M744.3,525.3c30.1-21.9,54.4-14,54.4,17.5c0,23.3-13.3,53.1-32.4,75.9v81.8c0,12.1-9.9,29.2-22,38h0
	c-12.1,8.8-22,6.1-22-6v-81.8c-19.1,5-32.4-5.3-32.4-28.7C689.9,590.5,714.3,547.2,744.3,525.3z"/>
<polygon class="st9" points="581.5,400.6 545.3,387.7 590,362.3 629.9,373.9 "/>
<polygon class="st9" points="758.1,300.2 721.9,287.3 766.6,261.9 806.5,273.5 "/>
<polygon class="st0" points="578.8,235.3 539.3,227.4 540,384.2 579.5,400.6 "/>
<linearGradient id="SVGID_6_" gradientUnits="userSpaceOnUse" x1="-69.7561" y1="231.3662" x2="-146.3018" y2="98.7851" gradientTransform="matrix(-1 0 0 1 476.331 0)">
	<stop  offset="0" style="stop-color:#E0E0E0"/>
	<stop  offset="0.5347" style="stop-color:#BDBDBD"/>
	<stop  offset="0.9926" style="stop-color:#E0E0E0"/>
</linearGradient>
<path class="st10" d="M539.1,227.3c-2-81.2,62.5-129.5,62.5-129.5l42.1,13.1c0,0-65.5,44.7-65.1,124.3L539.1,227.3z"/>
<polygon class="st11" points="629.9,373.9 579.5,400.6 578.8,235.3 629.4,222.5 "/>
<polygon class="st12" points="755.4,156.7 716,149.8 719.9,289 756.1,300.2 "/>
<polygon class="st11" points="806.7,145.8 755.4,156.7 756.1,300.2 806.5,273.5 "/>
<path class="st11" d="M755.4,156.7"/>
<path class="st11" d="M578.8,235.3l50.6-12.9c-0.2-50.6,38.4-72.6,38.4-72.6L643.9,111C643.9,111,578.4,153.7,578.8,235.3z"/>
<linearGradient id="SVGID_7_" gradientUnits="userSpaceOnUse" x1="-278.6308" y1="107.4996" x2="-270.2129" y2="155.2398" gradientTransform="matrix(-1 0 0 1 476.331 0)">
	<stop  offset="0" style="stop-color:#757575"/>
	<stop  offset="0.9926" style="stop-color:#BDBDBD"/>
</linearGradient>
<path class="st13" d="M693.7,121.4c23.8-3.9,22.3,28.5,22.3,28.5l39.5,6.9l51.1-7.8l-40.1-39.4L693.7,121.4z"/>
<path class="st11" d="M806.5,120.3c0,0,0-50.1-72.7-50.1c-42.3,0.2-89.8,40.8-89.8,40.8l23.9,38.8c17.2-14.9,43.5-31.4,61.3-30.8
	s26.3,11.9,26.3,37.6l51.1-6.9V120.3z"/>
<path class="st14" d="M940.5,737"/>
</svg>
